HIERARCHY
ROOT hip
{
  OFFSET 0.0 0.0 0.0
  CHANNELS 6 Xposition Yposition Zposition Zrotation Yrotation Xrotation
  JOINT torso
  {
    OFFSET 0.0 0.0 0.0
    CHANNELS 3 Zrotation Xrotation Yrotation
    JOINT neck
    {
      OFFSET -31.42098999999993 328.8025209999999 74.3554680000002
      CHANNELS 3 Zrotation Xrotation Yrotation
      JOINT head
      {
        OFFSET 3.3519900000001144 303.81732099999994 206.53942900000015
        CHANNELS 3 Zrotation Xrotation Yrotation
        End Site
        {
          OFFSET 0.0 0.0 0.0
        }
      }
    }
    JOINT left_collar
    {
      OFFSET -31.42098999999993 328.8025209999999 74.3554680000002
      CHANNELS 3 Zrotation Xrotation Yrotation
      JOINT left_upper_arm
      {
        OFFSET -124.490479 -8.162841999999841 8.226441000000023
        CHANNELS 3 Zrotation Xrotation Yrotation
        JOINT left_forearm
        {
          OFFSET -253.595764 -1.5758060000000569 105.0729980000001
          CHANNELS 3 Zrotation Xrotation Yrotation
          JOINT left_hand
          {
            OFFSET -269.48803699999996 0.1478270000000066 -55.346191999999974
            CHANNELS 3 Zrotation Xrotation Yrotation
            End Site
            {
              OFFSET 0.0 0.0 0.0
            }
          }
        }
      }
    }
    JOINT right_collar
    {
      OFFSET -31.42098999999993 328.8025209999999 74.3554680000002
      CHANNELS 3 Zrotation Xrotation Yrotation
      JOINT right_upper_arm
      {
        OFFSET 162.02484099999998 0.46441600000002836 2.2303470000001653
        CHANNELS 3 Zrotation Xrotation Yrotation
        JOINT right_forearm
        {
          OFFSET 240.01246700000004 -25.835875999999985 121.34179699999959
          CHANNELS 3 Zrotation Xrotation Yrotation
          JOINT right_hand
          {
            OFFSET 252.48539699999992 18.910399999999868 -67.53466800000001
            CHANNELS 3 Zrotation Xrotation Yrotation
            End Site
            {
              OFFSET 0.0 0.0 0.0
            }
          }
        }
      }
    }
  }
}
MOTION
Frames: 16
Frame Time: 0.01
-207.38109908875467 263.8381799166301 1377.2292692475662 3.0105555510980593 -4.829196338131428 -3.9393854198080978 -1.067430910197972 3.246429893655617 0.5243540976744849 -5.037474934559375 -4.333615896105129 3.5739315042190327 0.0 0.0 0.0 0.7698368158802592 0.19776587218938094 -2.0274420853866144 44.90864917759116 7.471214932878567 26.734318515550775 28.33374432827261 -2.044466387321347 -15.155775280448777 0.0 0.0 0.0 -0.6848738493183043 0.02695156529492246 5.623729201312972 -40.13807132834941 6.0807061668306615 -29.945620960005634 -43.75611979646004 -6.893495767067559 15.078840311731858 0.0 0.0 0.0
-207.25209939681997 263.7779550095688 1376.6904349414756 2.9703836877873737 -4.875921421536907 -3.897318125219575 -1.0427931532721684 3.248512322145466 0.5196474171853995 -5.0367374849360775 -4.300694728355491 3.5723282319328504 0.0 0.0 0.0 0.7740804884944142 0.19549244140905717 -1.9912045018752014 44.90857053563715 7.485831282568082 26.70018710219734 28.334482597282488 -2.0426048655499214 -15.163350406311269 0.0 0.0 0.0 -0.6995123602873126 0.027845007753137512 5.615217607048089 -40.06485855098739 6.056328008133609 -29.957893571720394 -43.77730788752963 -6.832927550583636 15.273671267407588 0.0 0.0 0.0
-207.11064685784092 263.71675492050787 1376.1437427070284 2.9316236685129957 -4.923673118640815 -3.855349244268775 -1.0191458569809848 3.2514888124348773 0.5152168779365975 -5.03598260831554 -4.268310134144065 3.570730287059247 0.0 0.0 0.0 0.7777488764044526 0.19338596311912024 -1.9579626331576556 44.90799259932233 7.499001142258118 26.669212036239927 28.333817846211108 -2.0409844553783953 -15.16955797836351 0.0 0.0 0.0 -0.7141199686499443 0.028727988081526806 5.604829927799271 -39.991624542539896 6.031892518971763 -29.97033717427604 -43.79828122607534 -6.771821130729294 15.469884279502306 0.0 0.0 0.0
-206.95484116098257 263.65366983178683 1375.5861922793633 2.8940742177328445 -4.97290723483384 -3.8131344916517125 -0.9967457381462288 3.2555288270417098 0.5111288902902934 -5.0350072055388395 -4.236559210151828 3.5689986133408054 0.0 0.0 0.0 0.7807083602820624 0.19151055003191295 -1.9287416808480689 44.90716697240362 7.510375838097021 26.642316048586938 28.331186478620335 -2.0396751078104733 -15.173955979820734 0.0 0.0 0.0 -0.7285096011656995 0.029586369629920315 5.592079863328254 -39.91842104539295 6.0072715595070285 -29.983243635431414 -43.81851775154906 -6.709966188870263 15.667907396935727 0.0 0.0 0.0
-206.78309672321265 263.58775068837036 1375.0144734186754 2.8574064305196494 -5.024083218723685 -3.770290687869762 -0.9758157184278216 3.2607787968463464 0.5074411611281265 -5.033593070197252 -4.205535155028297 3.5669835597535604 0.0 0.0 0.0 0.7828504289345944 0.18992793241305644 -1.9045039248687166 44.90642294691218 7.519632136140728 26.620397658433244 28.3260066582722 -2.038747855374567 -15.176092283413412 0.0 0.0 0.0 -0.7424782782871641 0.030404970743778768 5.576506402286135 -39.84526353466682 5.9823347296603515 -29.996892617350877 -43.83743008489986 -6.647149556159201 15.868162395811327 0.0 0.0 0.0
-206.59426637224377 263.5180395279962 1374.425096306928 2.8211628591139433 -5.0776462006356935 -3.7264030762980855 -0.9565378592319738 3.26735467385147 0.5042005759629956 -5.031511702956216 -4.175326688756583 3.5645282354869905 0.0 0.0 0.0 0.7840978038020773 0.18869546332271664 -1.8861162386519077 44.90616752299983 7.5264850580891896 26.604301293361857 28.31769435640034 -2.03827207144868 -15.175519450333248 0.0 0.0 0.0 -0.755810377815416 0.031167915200367383 5.557690639706708 -39.772136154335726 5.956956400261494 -30.01153958270949 -43.85437262435782 -6.583170108716754 16.07102443703958 0.0 0.0 0.0
-206.38776071048449 263.4435995746304 1373.8145270005575 2.784759431733829 -5.134009355936115 -3.681031616985856 -0.9390466962716976 3.275334620901814 0.5014411730268648 -5.028529555858733 -4.146016655397381 3.561472132964792 0.0 0.0 0.0 0.7844098861822806 0.18786417083211104 -1.8743189709142731 44.90688204817663 7.530700661664489 26.594785724022856 28.30568122767332 -2.0383122158606892 -15.17181192490166 0.0 0.0 0.0 -0.7682815235470359 0.031859052289917145 5.53527327435205 -39.698997938076076 5.931021523957407 -30.027406862569208 -43.868650298691534 -6.517852651426332 16.27678547057159 0.0 0.0 0.0
-206.16365845661602 263.3635440682998 1373.1793224430378 2.747490414190948 -5.1935373107554454 -3.6337157169009053 -0.9234232355858311 3.2847521013817054 0.4991822914876999 -5.024413550657036 -4.117679698145346 3.557654906169179 0.0 0.0 0.0 0.7837873017715472 0.1874769503613367 -1.8696974280787275 44.90911520336188 7.532108351075521 26.592491669947798 28.28943389383141 -2.038924111944515 -15.1645854079032 0.0 0.0 0.0 -0.7796631164108813 0.03246243863879496 5.508972014023581 -39.62579007213025 5.904429925224777 -30.04467831799859 -43.879528832746956 -6.451060119310964 16.485623237014533 0.0 0.0 0.0
-205.9228031119045 263.2770628725681 1372.516259549169 2.708536712039891 -5.256531366321252 -3.5839768383919126 -0.9096899688809129 3.2955897111019268 0.49742700169499826 -5.01893668005591 -4.090378903190109 3.5529201676568056 0.0 0.0 0.0 0.7822752915833482 0.18756699282302627 -1.8726572755612663 44.913472242088176 7.53061229210964 26.597909536482636 28.26847410495801 -2.0401508411739635 -15.153518042759702 0.0 0.0 0.0 -0.7897275599938615 0.032962870360104424 5.478597758185402 -39.552443893616406 5.877098924102903 -30.0634977758633 -43.886246416911 -6.3827035369785925 16.697577349412978 0.0 0.0 0.0
-205.66688151482597 263.1834459768033 1371.8224531527667 2.6669778636051067 -5.323217332267189 -3.5313185016954276 -0.8978073501991941 3.3077741638470886 0.4961609468917855 -5.011883485831285 -4.064161352275595 3.5471191592325497 0.0 0.0 0.0 0.7799656922841427 0.18815653910686783 -1.8834051767264113 44.920600589936974 7.5262015243501565 26.611348346765553 28.24239915915432 -2.0420183882389007 -15.13837287837525 0.0 0.0 0.0 -0.7982542324506311 0.03334644904592282 5.444068208093082 -39.47888928915525 5.848964298695374 -30.08397109169589 -43.8880266824586 -6.312749318267783 16.91253347911641 0.0 0.0 0.0
-205.39848025025285 263.0821031110818 1371.095458236821 2.6218080464119096 -5.393736695848481 -3.47522340599916 -0.8876722152349072 3.3211728747765794 0.49535173419930695 -5.003055221941158 -4.039052617293358 3.540114164869076 0.0 0.0 0.0 0.7769972822017315 0.18925603807945604 -1.9019358733627927 44.93117211790587 7.5189583762051475 26.632907055413387 28.21090189138877 -2.0445312152441173 -15.119020899286108 0.0 0.0 0.0 -0.8050362136242889 0.03360115911091228 5.405417554217332 -39.40506315929417 5.819979727589363 -30.106171406553536 -43.88409286806461 -6.241223659609645 17.130216128752966 0.0 0.0 0.0
-205.12111648791802 262.9725788431477 1370.333352830339 2.5719562840472276 -5.468141699568364 -3.415147720083087 -0.8791185875847121 3.3355925669192756 0.49494900040490997 -4.9922745506536765 -4.0150503676924 3.531781567510325 0.0 0.0 0.0 0.77355434260928 0.1908637642394835 -1.9280266768999632 44.94586259961361 7.5090647939423665 26.66244956282012 28.17378949293238 -2.0476679821705255 -15.09546375539002 0.0 0.0 0.0 -0.8098876967553306 0.03371742842466048 5.362801101276865 -39.330917634482496 5.790114972754038 -30.130146920990835 -43.87368303755579 -6.1682139802841585 17.350189868764115 0.0 0.0 0.0
-204.83924063534457 262.8545627500057 1369.5347991330975 2.516310807573423 -5.546394663660216 -3.350512982901795 -0.8719211981600468 3.3507802594230247 0.4948852449967425 -4.979389674978235 -3.9921174282995167 3.5220144959967263 0.0 0.0 0.0 0.7698633822810003 0.1929659239586866 -1.9612400044400204 44.96532903317932 7.496806199781894 26.69958485970378 28.13100040280188 -2.0513776580716097 -15.06785519009946 0.0 0.0 0.0 -0.8126519118333608 0.03368864040669606 5.316494054634734 -39.256427759293466 5.759353160474527 -30.155930315363175 -43.85606619750462 -6.0938675806427 17.571868280847074 0.0 0.0 0.0
-204.55820915814468 262.7278945550452 1368.6990816158086 2.453747231654994 -5.628371598421162 -3.2806964450820355 -0.8658018656782122 3.3664268958855357 0.49507747498359544 -4.964277872846001 -3.970174801666704 3.5107250578050584 0.0 0.0 0.0 0.7661880753747728 0.19553724753218882 -2.000934181592035 44.99018564512779 7.482572508147295 26.74365377855948 28.08261853472586 -2.0555762819045835 -15.036520062850638 0.0 0.0 0.0 -0.8132092746030506 0.03351156471898528 5.266884148374771 -39.18159839788264 5.727687578285031 -30.183548828801957 -43.830559165098805 -6.018387900110591 17.794529264569356 0.0 0.0 0.0
-204.28422697287604 262.59256447034437 1367.826121867947 2.3831598968940466 -5.713869839393208 -3.2050210100515213 -0.8604386794786667 3.3821737434857098 0.4954296509669389 -4.946848459499538 -3.9490953219760287 3.4978462007518756 0.0 0.0 0.0 0.7628225480398265 0.19854203059151487 -2.046282278904574 45.02097949370573 7.466855967826468 26.79372376843788 28.02888417349161 -2.0601446312029803 -15.001969798545444 0.0 0.0 0.0 -0.8114853678192091 0.03318667603451875 5.214458285429065 -39.10647015669178 5.69511841601421 -30.213033999422276 -43.796544016873945 -5.942028924435244 18.017334912126934 0.0 0.0 0.0
-204.02425989107857 262.448709325366 1366.9164707753034 2.3034954502251255 -5.802619141444211 -3.1227461322685803 -0.8554777213791774 3.3976215352733456 0.4958358681201142 -4.927045249136174 -3.9286986950363114 3.4833332801144765 0.0 0.0 0.0 0.7600832050061874 0.2019355573261721 -2.0962983077911876 45.058166649792085 7.450245570703589 26.848592912586422 27.970200989886422 -2.064927037834393 -14.964913087588155 0.0 0.0 0.0 -0.8074582850437062 0.03271833665102121 5.1597838109913114 -39.031124172203654 5.661649839148296 -30.24443016752419 -43.75348586341214 -5.86508838711556 18.23935390756181 0.0 0.0 0.0
